<svg xmlns="http://www.w3.org/2000/svg" viewBox="0 0 32 32" role="img" aria-label="ELETROSILVA">
  <defs>
    <linearGradient id="b" x1="0" y1="0" x2="0" y2="1">
      <stop offset="0%" stop-color="#1E6FD9"/>
      <stop offset="100%" stop-color="#0A3A7A"/>
    </linearGradient>
    <linearGradient id="o" x1="0" y1="0" x2="0" y2="1">
      <stop offset="0%" stop-color="#F9A825"/>
      <stop offset="100%" stop-color="#E85D04"/>
    </linearGradient>
  </defs>
  <path fill="url(#b)" d="M16 2.5 6.5 6.2v8.1c0 7.1 4.2 12.2 9.5 14.2V2.5z"/>
  <path fill="url(#o)" d="M16 2.5v26c5.3-2 9.5-7.1 9.5-14.2V6.2L16 2.5z"/>
  <path fill="#fff" opacity=".92" d="M17.6 7.2 11.2 15.4h4.2l-1.3 8.4 7.2-9.4h-4.4l.7-7.2z"/>
  <path fill="url(#b)" d="M16.4 8.1 12.1 15h2.9l-.9 5.6 4.5-5.9h-2.8l.6-6.6z"/>
  <path fill="url(#o)" d="M16.4 8.1v6.6h2.1l-4.5 5.9.4-2.5h2.4L21 15h-2.7l-1.9-6.9z"/>
</svg>
